<svg version="1.1" viewBox="0.0 0.0 480.0 480.0" fill="none" stroke="none" stroke-linecap="square" stroke-miterlimit="10" xmlns:xlink="http://www.w3.org/1999/xlink" xmlns="http://www.w3.org/2000/svg"><clipPath id="p.0"><path d="m0 0l480.0 0l0 480.0l-480.0 0l0 -480.0z" clip-rule="nonzero"/></clipPath><g clip-path="url(#p.0)"><path fill="#000000" fill-opacity="0.0" d="m0 0l480.0 0l0 480.0l-480.0 0z" fill-rule="evenodd"/><path fill="#000000" fill-opacity="0.0" d="m156.5833 114.422806c69.875275 0 140.49663 15.639099 205.9217 41.75348c14.710754 5.8717957 42.62851 11.496429 39.221527 27.819275c-22.268738 106.68877 -204.38985 150.46397 -294.16727 97.40431c-11.470642 -6.779297 -32.01516 -18.817322 -26.151535 -31.30896c9.264412 -19.736572 41.375084 -3.477417 62.105568 -3.477417c74.732574 0 147.65546 26.640533 222.25919 31.30896c15.229736 0.95303345 40.940277 15.401733 45.768066 0c23.69812 -75.60219 20.266632 -180.19482 -32.686523 -236.5498c-33.350677 -35.4932 -117.63779 -61.26209 -140.54863 -17.387047c-44.539886 85.29541 -4.1701965 289.67328 -94.7921 274.8136c-41.887672 -6.8684998 -98.49016 -49.435593 -91.5246 -93.926895c7.383301 -47.159576 60.866154 -101.40464 104.59459 -90.44949c96.704575 24.227097 167.43715 211.07933 107.86211 295.69037c-33.06398 46.958862 -113.24365 -38.13858 -143.81613 -86.97208c-16.051147 -25.63855 0.9662323 -81.28345 29.419037 -86.95981c95.61362 -19.075043 189.67157 48.112274 281.09726 83.48239c16.66858 6.4486084 34.91461 -19.953613 39.221527 -38.263794c1.6730652 -7.1128235 9.636414 -27.418045 6.5465393 -20.86444c-36.786835 78.024414 -84.51785 160.67834 -156.89767 201.75116c-48.5018 27.522919 -130.65149 7.6078186 -160.16516 -41.74121c-60.8535 -101.751495 -81.16511 -271.00256 -6.5350037 -361.7734c53.92868 -65.59218 222.65524 -66.4195 245.14322 17.387043c9.96347 37.131065 -49.763 58.232567 -81.71054 76.53986c-68.27435 39.12407 -142.1405 72.57822 -219.00323 83.48239c-32.216362 4.570389 -112.801704 -4.4310913 -94.78055 24.354156c48.40666 77.3201 150.70438 177.19681 228.79419 135.65579c61.203293 -32.557953 110.00487 -86.68628 163.43266 -132.1784c17.017761 -14.490067 34.16272 -54.60881 52.30307 -41.753464c28.936646 20.506226 -21.073944 89.33916 -55.570557 93.926895c-99.83975 13.2778015 -200.09755 27.831573 -300.7138 27.831573c-22.880188 0 -64.87908 -24.018768 -68.640564 0c-6.256468 39.950348 15.322792 87.01309 45.768074 111.313934c21.278763 16.984314 44.09487 -31.710907 65.37307 -48.696014c73.159256 -58.39865 101.32709 -174.00967 101.32709 -271.33618" fill-rule="evenodd"/><path stroke="#000000" stroke-width="8.0" stroke-linejoin="round" stroke-linecap="butt" d="m156.5833 114.422806c69.875275 0 140.49663 15.639099 205.9217 41.75348c14.710754 5.8717957 42.62851 11.496429 39.221527 27.819275c-22.268738 106.68877 -204.38985 150.46397 -294.16727 97.40431c-11.470642 -6.779297 -32.01516 -18.817322 -26.151535 -31.30896c9.264412 -19.736572 41.375084 -3.477417 62.105568 -3.477417c74.732574 0 147.65546 26.640533 222.25919 31.30896c15.229736 0.95303345 40.940277 15.401733 45.768066 0c23.69812 -75.60219 20.266632 -180.19482 -32.686523 -236.5498c-33.350677 -35.4932 -117.63779 -61.26209 -140.54863 -17.387047c-44.539886 85.29541 -4.1701965 289.67328 -94.7921 274.8136c-41.887672 -6.8684998 -98.49016 -49.435593 -91.5246 -93.926895c7.383301 -47.159576 60.866154 -101.40464 104.59459 -90.44949c96.704575 24.227097 167.43715 211.07933 107.86211 295.69037c-33.06398 46.958862 -113.24365 -38.13858 -143.81613 -86.97208c-16.051147 -25.63855 0.9662323 -81.28345 29.419037 -86.95981c95.61362 -19.075043 189.67157 48.112274 281.09726 83.48239c16.66858 6.4486084 34.91461 -19.953613 39.221527 -38.263794c1.6730652 -7.1128235 9.636414 -27.418045 6.5465393 -20.86444c-36.786835 78.024414 -84.51785 160.67834 -156.89767 201.75116c-48.5018 27.522919 -130.65149 7.6078186 -160.16516 -41.74121c-60.8535 -101.751495 -81.16511 -271.00256 -6.5350037 -361.7734c53.92868 -65.59218 222.65524 -66.4195 245.14322 17.387043c9.96347 37.131065 -49.763 58.232567 -81.71054 76.53986c-68.27435 39.12407 -142.1405 72.57822 -219.00323 83.48239c-32.216362 4.570389 -112.801704 -4.4310913 -94.78055 24.354156c48.40666 77.3201 150.70438 177.19681 228.79419 135.65579c61.203293 -32.557953 110.00487 -86.68628 163.43266 -132.1784c17.017761 -14.490067 34.16272 -54.60881 52.30307 -41.753464c28.936646 20.506226 -21.073944 89.33916 -55.570557 93.926895c-99.83975 13.2778015 -200.09755 27.831573 -300.7138 27.831573c-22.880188 0 -64.87908 -24.018768 -68.640564 0c-6.256468 39.950348 15.322792 87.01309 45.768074 111.313934c21.278763 16.984314 44.09487 -31.710907 65.37307 -48.696014c73.159256 -58.39865 101.32709 -174.00967 101.32709 -271.33618" fill-rule="evenodd"/></g></svg>